
<svg xmlns:dc="http://purl.org/dc/elements/1.1/" xmlns:cc="http://creativecommons.org/ns#" xmlns:rdf="http://www.w3.org/1999/02/22-rdf-syntax-ns#" xmlns:svg="http://www.w3.org/2000/svg" xmlns="http://www.w3.org/2000/svg" xmlns:inkscape="http://www.inkscape.org/namespaces/inkscape" xmlns:sodipodi="http://sodipodi.sourceforge.net/DTD/sodipodi-0.dtd" xmlns:ns1="http://sozi.baierouge.fr" version="1.1" id="svg4173" viewBox="0 0 735.43307 735.43307" height="207.55556mm" width="207.55556mm" inkscape:version="0.91 r13725" xmlns:xlink="http://www.w3.org/1999/xlink">
  <title id="title3335">Round Net Border</title>
  <defs id="defs4175"/>
  <metadata id="metadata4178">
    <rdf:RDF>
      <cc:Work rdf:about="">
        <dc:format>image/svg+xml</dc:format>
        <dc:type rdf:resource="http://purl.org/dc/dcmitype/StillImage"/>
        <dc:title>Round Net Border</dc:title>
        <dc:creator>
          <cc:Agent>
            <dc:title>Arvin61r58</dc:title>
          </cc:Agent>
        </dc:creator>
        <dc:publisher>
          <cc:Agent>
            <dc:title>Openclipart.org</dc:title>
          </cc:Agent>
        </dc:publisher>
        <dc:identifier>https://openclipart.org</dc:identifier>
        <dc:source>https://openclipart.org/user-detail/Arvin61r58</dc:source>
        <dc:subject>
          <rdf:Bag>
            <rdf:li>border</rdf:li>
            <rdf:li>frame</rdf:li>
            <rdf:li>net</rdf:li>
            <rdf:li/>
          </rdf:Bag>
        </dc:subject>
        <dc:description>round border</dc:description>
        <cc:license rdf:resource="http://creativecommons.org/publicdomain/zero/1.0/"/>
      </cc:Work>
      <cc:License rdf:about="http://creativecommons.org/publicdomain/zero/1.0/">
        <cc:permits rdf:resource="http://creativecommons.org/ns#Reproduction"/>
        <cc:permits rdf:resource="http://creativecommons.org/ns#Distribution"/>
        <cc:permits rdf:resource="http://creativecommons.org/ns#DerivativeWorks"/>
      </cc:License>
    </rdf:RDF>
  </metadata>
  <g transform="translate(-4.3307118,-158.46458)" id="layer1">
    <g id="g4733"/>
    <path id="path5185" d="m 372.04551,177.68112 a 174.75205,174.25 0 0 0 -35.81426,3.9029 174.75205,174.25 0 0 1 36.00173,3.89438 174.75205,174.25 0 0 1 36.6302,-3.78999 174.75205,174.25 0 0 0 -36.81767,-4.00729 z m 36.81767,4.00729 a 174.75205,174.25 0 0 1 34.4018,11.27624 174.75205,174.25 0 0 1 36.62595,3.88798 174.75205,174.25 0 0 0 -35.17727,-11.55531 174.75205,174.25 0 0 0 -35.85048,-3.60891 z m 71.02775,15.16422 a 174.75205,174.25 0 0 1 31.30207,18.15957 174.75205,174.25 0 0 1 35.01535,11.39552 174.75205,174.25 0 0 0 -32.0051,-18.5963 174.75205,174.25 0 0 0 -34.31232,-10.95879 z m 66.31742,29.55509 a 174.75205,174.25 0 0 1 26.82394,24.25039 174.75205,174.25 0 0 1 31.87301,18.40243 174.75205,174.25 0 0 0 -27.42472,-24.82133 174.75205,174.25 0 0 0 -31.27223,-17.83149 z m 58.69695,42.65282 a 174.75205,174.25 0 0 1 21.1869,29.28667 174.75205,174.25 0 0 1 27.3395,24.61042 174.75205,174.25 0 0 0 -21.65345,-29.96626 174.75205,174.25 0 0 0 -26.87295,-23.93083 z m 48.5264,53.89709 a 174.75205,174.25 0 0 1 14.61671,33.03404 174.75205,174.25 0 0 1 21.60658,29.73831 174.75205,174.25 0 0 0 -14.92775,-33.79885 174.75205,174.25 0 0 0 -21.29554,-28.9735 z m 36.22329,62.77235 a 174.75205,174.25 0 0 1 7.40955,35.3434 174.75205,174.25 0 0 0 -21.52349,-29.56787 174.75205,174.25 0 0 1 -0.0469,36.34469 174.75205,174.25 0 0 0 -27.15629,-24.39952 174.75205,174.25 0 0 1 -1.24203,7.92297 298.32505,298.32472 0 0 1 14.89794,46.11259 174.75205,174.25 0 0 1 5.89696,5.92678 174.75205,174.25 0 0 0 7.60342,-35.5607 174.75205,174.25 0 0 1 21.49579,29.51463 174.75205,174.25 0 0 0 0.0746,-36.29144 174.75205,174.25 0 0 1 14.93628,33.57304 174.75205,174.25 0 0 0 -7.55654,-36.15935 174.75205,174.25 0 0 0 -14.78929,-32.75922 z m 22.34583,68.91857 a 174.75205,174.25 0 0 1 -0.12143,36.10395 174.75205,174.25 0 0 1 7.60768,35.93565 174.75205,174.25 0 0 0 0.14913,-36.93481 174.75205,174.25 0 0 0 -7.63538,-35.10479 z m 7.48625,72.0396 a 174.75205,174.25 0 0 1 -7.64602,35.29015 174.75205,174.25 0 0 1 -0.0512,36.73028 174.75205,174.25 0 0 0 7.84629,-36.09969 174.75205,174.25 0 0 0 -0.14913,-35.92074 z m -7.69716,72.02043 a 174.75205,174.25 0 0 1 -14.84041,32.93179 174.75205,174.25 0 0 1 -7.70355,35.90796 174.75205,174.25 0 0 0 15.19833,-33.67316 174.75205,174.25 0 0 0 7.34563,-35.16659 z m -22.54396,68.83975 a 174.75205,174.25 0 0 1 -21.38288,29.1418 174.75205,174.25 0 0 1 -15.02789,33.53042 174.75205,174.25 0 0 0 21.89206,-29.78943 174.75205,174.25 0 0 0 14.51871,-32.88279 z m -36.41077,62.67222 a 174.75205,174.25 0 0 1 -26.99225,24.07357 174.75205,174.25 0 0 1 -21.69179,29.68505 174.75205,174.25 0 0 0 27.62711,-24.60404 174.75205,174.25 0 0 0 21.05693,-29.15458 z m -48.68404,53.75862 a 174.75205,174.25 0 0 1 -31.4171,17.94651 174.75205,174.25 0 0 1 -27.40981,24.54013 174.75205,174.25 0 0 0 32.15635,-18.34065 174.75205,174.25 0 0 0 26.67056,-24.14599 z m -58.82691,42.48664 a 174.75205,174.25 0 0 1 -34.46997,11.03762 174.75205,174.25 0 0 1 -31.92201,18.31934 174.75205,174.25 0 0 0 35.271,-11.26983 174.75205,174.25 0 0 0 31.12098,-18.08713 z m -66.39198,29.35696 a 174.75205,174.25 0 0 1 -36.02091,3.65364 174.75205,174.25 0 0 0 31.73879,-18.25116 174.75205,174.25 0 0 1 -36.24673,-3.84538 174.75205,174.25 0 0 1 -31.68554,18.22986 174.75205,174.25 0 0 0 36.18283,3.86882 174.75205,174.25 0 0 1 -35.0388,11.29966 174.75205,174.25 0 0 0 36.85177,-3.71116 174.75205,174.25 0 0 0 34.21859,-11.24428 z m -71.07036,14.95544 a 174.75205,174.25 0 0 1 -35.9996,-3.89438 174.75205,174.25 0 0 1 -36.63234,3.78999 174.75205,174.25 0 0 0 36.81556,4.0073 174.75205,174.25 0 0 0 35.81638,-3.90291 z m -72.63194,-0.10439 a 174.75205,174.25 0 0 1 -34.40179,-11.2741 174.75205,174.25 0 0 0 36.44059,-3.80277 174.75205,174.25 0 0 1 -31.54066,-18.20856 174.75205,174.25 0 0 1 -36.38734,3.80277 174.75205,174.25 0 0 0 31.47889,18.20644 174.75205,174.25 0 0 1 -36.61956,-3.88586 174.75205,174.25 0 0 0 35.18153,11.55531 174.75205,174.25 0 0 0 35.84834,3.60677 z m -71.02987,-15.16208 a 174.75205,174.25 0 0 1 -31.29354,-18.1553 174.75205,174.25 0 0 1 -35.01749,-11.3998 174.75205,174.25 0 0 0 32.00297,18.5963 174.75205,174.25 0 0 0 34.30806,10.9588 z m -66.31103,-29.5551 a 174.75205,174.25 0 0 1 -26.83033,-24.25039 174.75205,174.25 0 0 1 -31.86875,-18.40455 174.75205,174.25 0 0 0 27.42472,24.82346 174.75205,174.25 0 0 0 31.27436,17.83148 z M 139.18997,783.3017 A 174.75205,174.25 0 0 1 118.00308,754.01929 174.75205,174.25 0 0 1 90.665709,729.40887 174.75205,174.25 0 0 0 112.3149,759.37513 174.75205,174.25 0 0 0 139.18997,783.3017 Z M 90.665709,729.40887 A 174.75205,174.25 0 0 1 76.046859,696.37269 174.75205,174.25 0 0 1 54.43815,666.63013 174.75205,174.25 0 0 0 69.368037,700.43112 174.75205,174.25 0 0 0 90.665709,729.40887 Z M 54.43815,666.63013 a 174.75205,174.25 0 0 1 -7.409554,-35.34341 174.75205,174.25 0 0 1 -14.934141,-33.56877 174.75205,174.25 0 0 0 7.554419,36.15722 174.75205,174.25 0 0 0 14.789276,32.75496 z M 32.094455,597.71795 a 174.75205,174.25 0 0 1 0.121424,-36.10822 174.75205,174.25 0 0 1 -7.607681,-35.92926 174.75205,174.25 0 0 0 -0.151257,36.92842 174.75205,174.25 0 0 0 7.637514,35.10906 z m -7.486257,-72.03748 a 174.75205,174.25 0 0 1 7.646032,-35.29227 174.75205,174.25 0 0 1 0.049,-36.73029 174.75205,174.25 0 0 0 -7.846287,36.09543 174.75205,174.25 0 0 0 0.151257,35.92713 z m 7.69503,-72.02256 a 174.75205,174.25 0 0 1 14.840411,-32.93178 174.75205,174.25 0 0 1 7.705676,-35.91649 174.75205,174.25 0 0 0 -15.200441,33.67956 174.75205,174.25 0 0 0 -7.345646,35.16871 z m 22.546087,-68.84827 a 174.75205,174.25 0 0 1 21.385014,-29.14179 174.75205,174.25 0 0 1 15.02576,-33.52829 174.75205,174.25 0 0 0 -21.892052,29.79157 174.75205,174.25 0 0 0 -14.518722,32.87851 z m 36.410774,-62.67008 a 174.75205,174.25 0 0 1 26.990111,-24.06718 174.75205,174.25 0 0 1 21.68968,-29.68292 174.75205,174.25 0 0 0 -27.62498,24.60191 174.75205,174.25 0 0 0 -21.054811,29.14819 z m 48.679791,-53.7501 a 174.75205,174.25 0 0 1 31.41923,-17.94865 174.75205,174.25 0 0 1 27.40341,-24.53587 174.75205,174.25 0 0 0 -32.14783,18.33427 174.75205,174.25 0 0 0 -26.67481,24.15025 z m 58.82264,-42.48452 a 174.75205,174.25 0 0 1 34.48063,-11.04614 174.75205,174.25 0 0 1 31.91987,-18.31934 174.75205,174.25 0 0 0 -35.271,11.27196 174.75205,174.25 0 0 0 -31.1295,18.09352 z m 66.4005,-29.36548 a 174.75205,174.25 0 0 1 36.0273,-3.65364 174.75205,174.25 0 0 1 35.04093,-11.3018 174.75205,174.25 0 0 0 -36.84964,3.7133 174.75205,174.25 0 0 0 -34.21859,11.24214 z m 36.0273,-3.65364 a 174.75205,174.25 0 0 0 -31.74517,18.25543 174.75205,174.25 0 0 1 36.24672,3.84325 174.75205,174.25 0 0 1 31.68553,-18.22987 174.75205,174.25 0 0 0 -36.18708,-3.86881 z m 36.18708,3.86881 a 174.75205,174.25 0 0 1 34.65106,11.27197 174.75205,174.25 0 0 1 34.79593,-11.26132 174.75205,174.25 0 0 0 -34.59141,-11.28688 174.75205,174.25 0 0 0 -34.85558,11.27623 z m 69.44699,0.0109 a 174.75205,174.25 0 0 1 31.54279,18.21283 174.75205,174.25 0 0 1 36.38521,-3.80491 174.75205,174.25 0 0 0 -31.48741,-18.20855 174.75205,174.25 0 0 0 -36.44059,3.80063 z m 67.928,14.40792 a 174.75205,174.25 0 0 1 27.05403,24.35478 174.75205,174.25 0 0 1 36.38308,3.82195 174.75205,174.25 0 0 0 -26.9965,-24.33773 174.75205,174.25 0 0 0 -36.44061,-3.839 z m 63.43711,28.17673 a 174.75205,174.25 0 0 1 21.38715,29.42939 174.75205,174.25 0 0 1 34.78953,11.28262 174.75205,174.25 0 0 0 -21.33389,-29.40383 174.75205,174.25 0 0 0 -34.84279,-11.30818 z m 56.17668,40.71201 a 174.75205,174.25 0 0 1 14.78289,33.22153 174.75205,174.25 0 0 1 31.67914,18.2469 174.75205,174.25 0 0 0 -14.73601,-33.18316 174.75205,174.25 0 0 0 -31.72602,-18.28527 z m 46.46203,51.46843 a 174.75205,174.25 0 0 1 7.53524,35.5607 174.75205,174.25 0 0 1 27.1776,24.41444 174.75205,174.25 0 0 0 -7.49264,-35.51384 174.75205,174.25 0 0 0 -27.2202,-24.4613 z m -31.67914,-18.24715 a 174.75205,174.25 0 0 0 -34.76184,-11.2741 174.75205,174.25 0 0 1 1.97702,7.30302 298.32505,298.32472 0 0 1 33.18107,36.75799 174.75205,174.25 0 0 1 7.16456,2.78443 174.75205,174.25 0 0 0 -7.56081,-35.57134 z m 7.56081,35.57134 a 174.75205,174.25 0 0 1 0.42821,7.8335 298.32505,298.32472 0 0 1 24.43363,42.33752 174.75205,174.25 0 0 1 6.76404,4.42485 174.75205,174.25 0 0 0 0.0255,-36.35961 174.75205,174.25 0 0 0 -31.65145,-18.23626 z m -42.32265,-46.84544 a 174.75205,174.25 0 0 0 -14.81058,-33.23005 174.75205,174.25 0 0 0 -36.35326,-3.81981 174.75205,174.25 0 0 1 3.31066,6.44447 298.32505,298.32472 0 0 1 40.73976,29.43793 174.75205,174.25 0 0 1 7.11342,1.16746 z m -51.16384,-37.04986 a 174.75205,174.25 0 0 0 -21.41697,-29.43153 174.75205,174.25 0 0 0 -36.35325,3.79851 174.75205,174.25 0 0 1 4.37798,5.36649 298.32505,298.32472 0 0 1 46.68786,20.57118 174.75205,174.25 0 0 1 6.70438,-0.30465 z m -57.77022,-25.63302 a 174.75205,174.25 0 0 0 -27.08599,-24.34838 174.75205,174.25 0 0 0 -34.76823,11.25493 174.75205,174.25 0 0 1 5.17902,4.16493 298.32505,298.32472 0 0 1 50.46506,10.53698 174.75205,174.25 0 0 1 6.21014,-1.60846 z m -61.85422,-13.09345 a 174.75205,174.25 0 0 0 -31.57049,-18.20644 174.75205,174.25 0 0 0 -31.66209,18.21921 174.75205,174.25 0 0 1 5.81174,2.93783 298.32505,298.32472 0 0 1 25.86953,-1.32724 298.32505,298.32472 0 0 1 25.71613,1.28676 174.75205,174.25 0 0 1 5.83518,-2.91012 z m -63.23258,0.0128 a 174.75205,174.25 0 0 0 -34.6745,-11.26131 174.75205,174.25 0 0 0 -27.17332,24.38247 174.75205,174.25 0 0 1 6.56803,1.74054 298.32505,298.32472 0 0 1 49.88559,-10.56467 174.75205,174.25 0 0 1 5.3942,-4.29703 z M 278.51855,239.367 a 174.75205,174.25 0 0 0 -36.26591,-3.82408 174.75205,174.25 0 0 0 -21.49367,29.48054 174.75205,174.25 0 0 1 7.13047,0.3579 298.32505,298.32472 0 0 1 46.18933,-20.61592 174.75205,174.25 0 0 1 4.43978,-5.39844 z m -57.75958,25.65646 a 174.75205,174.25 0 0 0 -36.2723,3.77721 174.75205,174.25 0 0 0 -14.87663,33.29394 174.75205,174.25 0 0 1 7.42021,-1.18664 298.32505,298.32472 0 0 1 40.44576,-29.55296 174.75205,174.25 0 0 1 3.28296,-6.33155 z m -51.14893,37.07115 a 174.75205,174.25 0 0 0 -34.69154,11.21658 174.75205,174.25 0 0 0 -7.60767,35.64805 174.75205,174.25 0 0 1 7.33712,-2.82492 298.32505,298.32472 0 0 1 33.02982,-37.01151 174.75205,174.25 0 0 1 1.93227,-7.0282 z m -42.29921,46.86463 a 174.75205,174.25 0 0 0 -31.596061,18.16169 174.75205,174.25 0 0 0 -0.0109,36.44908 174.75205,174.25 0 0 1 6.819431,-4.4355 298.32505,298.32472 0 0 1 24.35693,-42.78277 174.75205,174.25 0 0 1 0.43035,-7.3925 z m -31.606711,54.61077 a 174.75205,174.25 0 0 0 -27.115807,24.31218 174.75205,174.25 0 0 0 7.588507,35.65656 174.75205,174.25 0 0 1 5.84797,-5.85222 298.32505,298.32472 0 0 1 14.84041,-46.56211 174.75205,174.25 0 0 1 -1.16108,-7.55441 z m -19.5273,59.96874 a 174.75205,174.25 0 0 0 -21.453193,29.40384 174.75205,174.25 0 0 0 14.857449,33.30247 174.75205,174.25 0 0 1 4.484504,-6.91529 298.32505,298.32472 0 0 1 4.9745,-48.25366 174.75205,174.25 0 0 1 -2.86326,-7.53736 z m -6.595744,62.70631 a 174.75205,174.25 0 0 0 -14.855322,33.21087 174.75205,174.25 0 0 0 21.478756,29.49331 174.75205,174.25 0 0 1 2.87818,-7.52246 298.32505,298.32472 0 0 1 -5.11724,-48.3836 174.75205,174.25 0 0 1 -4.384374,-6.79812 z m 6.623434,62.70418 a 174.75205,174.25 0 0 0 -7.605551,35.56283 174.75205,174.25 0 0 0 27.156291,24.39951 174.75205,174.25 0 0 1 1.24203,-7.9251 298.32505,298.32472 0 0 1 -14.8958,-46.10833 174.75205,174.25 0 0 1 -5.89697,-5.92891 z m 19.55074,59.96234 a 174.75205,174.25 0 0 0 -0.0234,36.36174 174.75205,174.25 0 0 0 31.653581,18.23413 174.75205,174.25 0 0 1 -0.42821,-7.82924 298.32505,298.32472 0 0 1 -24.43363,-42.34177 174.75205,174.25 0 0 1 -6.768301,-4.42486 z m 31.630141,54.59587 a 174.75205,174.25 0 0 0 7.55655,35.57348 174.75205,174.25 0 0 0 34.76397,11.2741 174.75205,174.25 0 0 1 -1.97914,-7.30729 298.32505,298.32472 0 0 1 -33.17895,-36.75586 174.75205,174.25 0 0 1 -7.16243,-2.78443 z m 42.32052,46.84758 a 174.75205,174.25 0 0 0 14.81059,33.22791 174.75205,174.25 0 0 0 36.35325,3.81981 174.75205,174.25 0 0 1 -3.30852,-6.44447 298.32505,298.32472 0 0 1 -40.74189,-29.43792 174.75205,174.25 0 0 1 -7.11343,-1.16533 z m 51.16384,37.04772 a 174.75205,174.25 0 0 0 21.4191,29.43579 174.75205,174.25 0 0 0 36.35326,-3.80064 174.75205,174.25 0 0 1 -4.37799,-5.36861 298.32505,298.32472 0 0 1 -46.68998,-20.57119 174.75205,174.25 0 0 1 -6.70439,0.30465 z m 57.77236,25.63515 a 174.75205,174.25 0 0 0 27.08598,24.35052 174.75205,174.25 0 0 0 34.76609,-11.25493 174.75205,174.25 0 0 1 -5.18114,-4.16707 298.32505,298.32472 0 0 1 -50.46506,-10.5391 174.75205,174.25 0 0 1 -6.20587,1.61058 z m 61.85207,13.09559 a 174.75205,174.25 0 0 0 31.5705,18.20217 174.75205,174.25 0 0 0 31.6621,-18.21708 174.75205,174.25 0 0 1 -5.81175,-2.93783 298.32505,298.32472 0 0 1 -25.86739,1.32512 298.32505,298.32472 0 0 1 -25.71613,-1.28677 174.75205,174.25 0 0 1 -5.83733,2.91439 z m 63.2326,-0.0149 a 174.75205,174.25 0 0 0 34.67662,11.26131 174.75205,174.25 0 0 0 27.1712,-24.38033 174.75205,174.25 0 0 1 -6.57017,-1.74268 298.32505,298.32472 0 0 1 -49.88134,10.56255 174.75205,174.25 0 0 1 -5.39631,4.29915 z m 61.84782,-13.11902 a 174.75205,174.25 0 0 0 36.26591,3.82407 174.75205,174.25 0 0 0 21.4958,-29.48479 174.75205,174.25 0 0 1 -7.13047,-0.35791 298.32505,298.32472 0 0 1 -46.18934,20.61805 174.75205,174.25 0 0 1 -4.4419,5.40058 z m 57.76171,-25.66072 a 174.75205,174.25 0 0 0 36.27229,-3.7772 174.75205,174.25 0 0 0 14.87663,-33.29183 174.75205,174.25 0 0 1 -7.42233,1.18663 298.32505,298.32472 0 0 1 -40.44577,29.55084 174.75205,174.25 0 0 1 -3.28082,6.33156 z m 51.14892,-37.06903 a 174.75205,174.25 0 0 0 34.68728,-11.21445 174.75205,174.25 0 0 0 7.61193,-35.6523 174.75205,174.25 0 0 1 -7.33924,2.82704 298.32505,298.32472 0 0 1 -33.02769,37.00725 174.75205,174.25 0 0 1 -1.93228,7.03246 z m 42.29921,-46.86675 a 174.75205,174.25 0 0 0 31.59393,-18.15957 174.75205,174.25 0 0 0 0.0109,-36.45121 174.75205,174.25 0 0 1 -6.8173,4.43337 298.32505,298.32472 0 0 1 -24.35693,42.78277 174.75205,174.25 0 0 1 -0.43035,7.39464 z m 31.60458,-54.61078 a 174.75205,174.25 0 0 0 27.11794,-24.31217 174.75205,174.25 0 0 0 -7.59063,-35.65657 174.75205,174.25 0 0 1 -5.84584,5.85222 298.32505,298.32472 0 0 1 -14.84254,46.56636 174.75205,174.25 0 0 1 1.16107,7.55016 z m 19.52731,-59.96874 a 174.75205,174.25 0 0 0 21.45532,-29.40384 174.75205,174.25 0 0 0 -14.85959,-33.3046 174.75205,174.25 0 0 1 -4.48237,6.91316 298.32505,298.32472 0 0 1 -4.9745,48.26004 174.75205,174.25 0 0 1 2.86114,7.53524 z m 6.59573,-62.70844 a 174.75205,174.25 0 0 0 14.85533,-33.20448 174.75205,174.25 0 0 0 -21.47663,-29.49757 174.75205,174.25 0 0 1 -2.87817,7.52034 298.32505,298.32472 0 0 1 5.11723,48.38999 174.75205,174.25 0 0 1 4.38224,6.79172 z m 14.85533,-33.20448 a 174.75205,174.25 0 0 1 14.87023,33.32592 174.75205,174.25 0 0 0 7.64177,-35.48401 174.75205,174.25 0 0 0 -14.88941,-33.38556 174.75205,174.25 0 0 1 -7.62259,35.54365 z m 14.87023,33.32592 a 174.75205,174.25 0 0 1 -14.86597,33.18316 174.75205,174.25 0 0 1 7.5949,35.68428 174.75205,174.25 0 0 0 14.8745,-33.12565 174.75205,174.25 0 0 0 -7.60343,-35.74179 z m -7.27107,68.86744 a 174.75205,174.25 0 0 1 -21.45959,29.37613 174.75205,174.25 0 0 1 -0.0109,36.47891 174.75205,174.25 0 0 0 21.45319,-29.31862 174.75205,174.25 0 0 0 0.017,-36.53642 z m -21.47024,65.85504 a 174.75205,174.25 0 0 1 -27.11794,24.28447 174.75205,174.25 0 0 1 -7.61407,35.68001 174.75205,174.25 0 0 0 27.09877,-24.23335 174.75205,174.25 0 0 0 7.63324,-35.73113 z m -34.73201,59.96448 a 174.75205,174.25 0 0 1 -31.59179,18.13186 174.75205,174.25 0 0 1 -14.88728,33.31952 174.75205,174.25 0 0 0 31.5577,-18.08073 174.75205,174.25 0 0 0 14.92137,-33.37065 z m -46.47907,51.45138 a 174.75205,174.25 0 0 1 -34.67663,11.18676 174.75205,174.25 0 0 1 -21.51071,29.50822 174.75205,174.25 0 0 0 34.63615,-11.14415 174.75205,174.25 0 0 0 21.55119,-29.55083 z m -56.18734,40.69498 a 174.75205,174.25 0 0 1 -36.25738,3.75377 174.75205,174.25 0 0 1 -27.19038,24.40164 174.75205,174.25 0 0 0 36.20413,-3.72181 174.75205,174.25 0 0 0 27.24363,-24.4336 z m -166.03321,31.2658 a 174.75205,174.25 0 0 1 -34.79593,11.26132 174.75205,174.25 0 0 0 34.59354,11.28688 174.75205,174.25 0 0 0 34.85557,-11.2741 174.75205,174.25 0 0 1 -34.65318,-11.2741 z M 242.28885,816.83852 a 174.75205,174.25 0 0 1 -36.3852,-3.82195 174.75205,174.25 0 0 0 27.00289,24.33987 174.75205,174.25 0 0 0 36.43421,3.83472 174.75205,174.25 0 0 1 -27.0519,-24.35264 z m -36.3852,-3.82195 a 174.75205,174.25 0 0 1 -21.38715,-29.43366 174.75205,174.25 0 0 1 -34.78741,-11.28049 174.75205,174.25 0 0 0 21.32963,29.40383 174.75205,174.25 0 0 0 34.84493,11.31032 z m -56.17456,-40.71415 a 174.75205,174.25 0 0 1 -14.78715,-33.22152 174.75205,174.25 0 0 1 -31.67487,-18.24691 174.75205,174.25 0 0 0 14.73601,33.1853 174.75205,174.25 0 0 0 31.72601,18.28313 z m -46.46202,-51.46843 a 174.75205,174.25 0 0 1 -7.535261,-35.5607 174.75205,174.25 0 0 1 -27.177583,-24.41443 174.75205,174.25 0 0 0 7.492633,35.51383 174.75205,174.25 0 0 0 27.220211,24.4613 z M 68.554226,660.85886 a 174.75205,174.25 0 0 1 0.04473,-36.34682 174.75205,174.25 0 0 1 -21.495797,-29.51461 174.75205,174.25 0 0 0 -0.07457,36.28929 174.75205,174.25 0 0 0 21.52563,29.57214 z M 47.103161,594.99743 a 174.75205,174.25 0 0 1 7.622592,-35.54153 174.75205,174.25 0 0 1 -14.870233,-33.32804 174.75205,174.25 0 0 0 -7.639641,35.48187 174.75205,174.25 0 0 0 14.887282,33.3877 z M 39.85552,526.12786 a 174.75205,174.25 0 0 1 14.868106,-33.1853 174.75205,174.25 0 0 1 -7.599163,-35.68214 174.75205,174.25 0 0 0 -14.870233,33.12778 174.75205,174.25 0 0 0 7.60129,35.73966 z m 28.732792,-98.2457 a 174.75205,174.25 0 0 1 0.01069,-36.47678 174.75205,174.25 0 0 0 -21.453192,29.32075 174.75205,174.25 0 0 0 -0.01917,36.53217 174.75205,174.25 0 0 1 21.461711,-29.37614 z m 0.01069,-36.47678 a 174.75205,174.25 0 0 1 27.115817,-24.28448 174.75205,174.25 0 0 1 7.616201,-35.68 174.75205,174.25 0 0 0 -27.096641,24.22695 174.75205,174.25 0 0 0 -7.635377,35.73753 z M 103.33102,331.4409 a 174.75205,174.25 0 0 1 31.58753,-18.12974 174.75205,174.25 0 0 1 14.88942,-33.32378 174.75205,174.25 0 0 0 -31.55772,18.085 174.75205,174.25 0 0 0 -14.91923,33.36852 z m 46.47695,-51.45352 a 174.75205,174.25 0 0 1 34.67874,-11.18674 174.75205,174.25 0 0 1 21.51072,-29.50397 174.75205,174.25 0 0 0 -34.63828,11.14414 174.75205,174.25 0 0 0 -21.55118,29.54657 z m 56.18946,-40.69071 a 174.75205,174.25 0 0 1 36.25525,-3.75378 174.75205,174.25 0 0 1 27.19251,-24.40164 174.75205,174.25 0 0 0 -36.202,3.71755 174.75205,174.25 0 0 0 -27.24576,24.43787 z" style="opacity:1;fill:none;fill-opacity:1;fill-rule:nonzero;stroke:#000000;stroke-width:3;stroke-linecap:round;stroke-linejoin:round;stroke-miterlimit:4;stroke-dasharray:none;stroke-dashoffset:0;stroke-opacity:1"/>
  </g>
</svg>
